<?xml version="1.0" standalone="no"?>
<!DOCTYPE svg PUBLIC "-//W3C//DTD SVG 20010904//EN"
 "http://www.w3.org/TR/2001/REC-SVG-20010904/DTD/svg10.dtd">
<svg version="1.0" xmlns="http://www.w3.org/2000/svg"
 width="994.000000pt" height="994.000000pt" viewBox="0 0 994.000000 994.000000"
 preserveAspectRatio="xMidYMid meet">

<g transform="translate(0.000000,994.000000) scale(0.100000,-0.100000)"
fill="#000000" stroke="none">
<path d="M4652 9930 c-184 -13 -448 -48 -617 -82 -82 -17 -168 -34 -190 -38
-171 -35 -549 -154 -722 -228 -38 -16 -84 -35 -103 -42 -80 -30 -464 -223
-575 -290 -146 -88 -319 -202 -400 -263 -33 -26 -80 -61 -104 -79 -175 -132
-283 -229 -491 -437 -255 -256 -424 -462 -617 -751 -692 -1036 -967 -2304
-768 -3545 126 -784 447 -1540 929 -2185 257 -344 615 -704 976 -981 309 -237
730 -478 1105 -633 1104 -454 2333 -497 3462 -121 448 149 902 378 1286 648
389 273 757 620 1032 971 17 21 51 65 77 98 141 176 339 494 472 758 698 1381
713 3002 42 4395 -197 408 -428 759 -734 1115 -164 190 -515 519 -710 665 -29
22 -68 52 -85 66 -60 49 -332 226 -466 303 -621 357 -1288 570 -2006 641 -190
19 -621 27 -793 15z m-829 -497 c-7 -2 -19 -2 -25 0 -7 3 -2 5 12 5 14 0 19
-2 13 -5z m-526 -149 c-3 -3 -12 -4 -19 -1 -8 3 -5 6 6 6 11 1 17 -2 13 -5z
m1690 -90 c-3 -3 -12 -4 -19 -1 -8 3 -5 6 6 6 11 1 17 -2 13 -5z m-770 -50
c-3 -3 -12 -4 -19 -1 -8 3 -5 6 6 6 11 1 17 -2 13 -5z m1170 -40 c-3 -3 -12
-4 -19 -1 -8 3 -5 6 6 6 11 1 17 -2 13 -5z m-164 -101 c-7 -2 -19 -2 -25 0 -7
3 -2 5 12 5 14 0 19 -2 13 -5z m-830 -40 c-7 -2 -19 -2 -25 0 -7 3 -2 5 12 5
14 0 19 -2 13 -5z m-906 -9 c-3 -3 -12 -4 -19 -1 -8 3 -5 6 6 6 11 1 17 -2 13
-5z m410 -150 c-3 -3 -12 -4 -19 -1 -8 3 -5 6 6 6 11 1 17 -2 13 -5z m-370
-10 c-3 -3 -12 -4 -19 -1 -8 3 -5 6 6 6 11 1 17 -2 13 -5z m1860 -140 c-3 -3
-12 -4 -19 -1 -8 3 -5 6 6 6 11 1 17 -2 13 -5z m-2190 -50 c-3 -3 -12 -4 -19
-1 -8 3 -5 6 6 6 11 1 17 -2 13 -5z m-1140 -50 c-3 -3 -12 -4 -19 -1 -8 3 -5
6 6 6 11 1 17 -2 13 -5z m3270 -10 c-3 -3 -12 -4 -19 -1 -8 3 -5 6 6 6 11 1
17 -2 13 -5z m-80 -40 c-3 -3 -12 -4 -19 -1 -8 3 -5 6 6 6 11 1 17 -2 13 -5z
m-7 -184 c23 -41 62 -109 87 -150 51 -83 242 -410 281 -480 14 -25 40 -69 59
-98 18 -29 33 -54 33 -57 0 -3 27 -51 60 -107 64 -106 65 -116 10 -119 -24 -2
-24 -2 -2 -6 12 -2 22 -7 22 -9 0 -3 -23 -44 -52 -92 -84 -141 -161 -268 -192
-319 -17 -27 -30 -50 -31 -53 -3 -23 -43 -70 -60 -70 -19 -1 -19 -1 -2 -11 16
-9 16 -13 5 -27 -7 -10 -18 -26 -24 -37 -40 -74 -72 -129 -110 -192 -24 -40
-44 -75 -44 -78 0 -3 -15 -30 -34 -59 -18 -29 -37 -62 -40 -74 -4 -12 -10 -22
-14 -22 -8 0 -119 182 -235 385 -85 149 -215 364 -334 554 l-83 131 57 97 c31
54 73 127 93 163 20 36 63 110 96 165 33 55 64 107 68 115 4 8 17 32 29 52 92
153 147 249 147 254 0 4 6 15 14 23 8 9 29 45 48 81 19 36 45 82 58 103 28 46
31 44 90 -63z m2167 -196 c-3 -3 -12 -4 -19 -1 -8 3 -5 6 6 6 11 1 17 -2 13
-5z m-4109 -281 c-10 -2 -26 -2 -35 0 -10 3 -2 5 17 5 19 0 27 -2 18 -5z m789
1 c-3 -3 -12 -4 -19 -1 -8 3 -5 6 6 6 11 1 17 -2 13 -5z m-810 -120 c-3 -3
-12 -4 -19 -1 -8 3 -5 6 6 6 11 1 17 -2 13 -5z m786 -11 c-7 -2 -19 -2 -25 0
-7 3 -2 5 12 5 14 0 19 -2 13 -5z m3724 -9 c-3 -3 -12 -4 -19 -1 -8 3 -5 6 6
6 11 1 17 -2 13 -5z m-3500 -140 c-3 -3 -12 -4 -19 -1 -8 3 -5 6 6 6 11 1 17
-2 13 -5z m2086 -41 c-7 -2 -19 -2 -25 0 -7 3 -2 5 12 5 14 0 19 -2 13 -5z
m-3140 -80 c-7 -2 -19 -2 -25 0 -7 3 -2 5 12 5 14 0 19 -2 13 -5z m174 1 c-3
-3 -12 -4 -19 -1 -8 3 -5 6 6 6 11 1 17 -2 13 -5z m2727 -627 c16 -28 75 -128
131 -222 103 -173 259 -438 306 -523 30 -53 42 -74 117 -199 114 -191 132
-222 132 -235 0 -6 -8 -4 -18 5 -10 10 -26 17 -35 17 -9 0 -17 5 -17 10 0 6 6
10 13 10 8 0 7 4 -3 10 -8 5 -23 7 -32 4 -10 -3 -18 -1 -18 5 0 6 8 11 18 12
10 0 12 3 4 6 -6 2 -10 8 -8 12 13 21 -17 30 -116 32 -59 1 -111 0 -115 -4 -3
-4 26 -7 66 -7 46 0 70 -4 66 -10 -3 -5 -36 -10 -72 -10 -37 0 -64 -3 -60 -6
3 -4 52 -7 109 -7 65 0 92 -3 73 -7 -16 -4 -72 -8 -122 -9 -52 0 -93 -5 -93
-11 0 -5 44 -7 110 -5 70 3 109 1 105 -5 -4 -6 -67 -11 -143 -11 -103 -1 -126
-4 -92 -10 25 -4 77 -8 115 -8 39 -1 77 -6 85 -11 11 -7 1 -10 -36 -10 -98 0
-235 13 -222 21 9 6 5 9 -13 9 -14 0 -31 -6 -37 -12 -10 -10 -120 -14 -470
-15 -251 -1 -462 -5 -469 -7 -7 -3 -13 -3 -13 0 0 2 42 77 93 165 50 88 99
172 107 187 9 15 28 46 43 69 15 24 27 45 27 48 0 3 15 29 33 58 18 29 59 99
91 157 32 58 89 157 126 220 37 63 82 140 99 170 17 30 46 81 63 112 18 32 35
58 38 58 3 0 18 -24 34 -53z m-1854 21 c17 -26 23 -38 77 -133 22 -38 83 -141
136 -228 53 -87 97 -160 97 -162 0 -3 15 -29 34 -58 34 -52 54 -87 104 -177
28 -52 86 -149 117 -200 12 -19 41 -69 65 -110 23 -41 51 -88 61 -105 l17 -30
-114 -3 c-116 -2 -151 10 -72 25 l42 8 -30 20 c-32 21 -164 33 -164 15 0 -6
31 -10 75 -10 45 0 75 -4 75 -10 0 -13 -41 -29 -58 -22 -7 2 -12 -2 -10 -9 3
-12 -95 -14 -595 -17 l-599 -3 47 86 c26 48 78 138 116 201 38 62 69 116 69
119 0 5 15 30 87 142 18 28 33 54 33 57 0 3 20 40 45 82 25 41 45 80 45 85 0
5 3 9 8 9 4 0 23 30 42 68 18 37 73 134 122 216 48 81 88 152 88 157 0 17 25
9 40 -13z m4427 -274 c-3 -3 -12 -4 -19 -1 -8 3 -5 6 6 6 11 1 17 -2 13 -5z
m-6734 -521 c-7 -2 -19 -2 -25 0 -7 3 -2 5 12 5 14 0 19 -2 13 -5z m4720 -300
c-7 -2 -21 -2 -30 0 -10 3 -4 5 12 5 17 0 24 -2 18 -5z m734 -69 c-3 -3 -12
-4 -19 -1 -8 3 -5 6 6 6 11 1 17 -2 13 -5z m-740 -20 c-3 -3 -12 -4 -19 -1 -8
3 -5 6 6 6 11 1 17 -2 13 -5z m-5917 -683 c30 -11 68 -32 85 -45 32 -26 32
-28 -28 -100 l-25 -28 -67 27 c-59 23 -80 26 -148 23 -74 -3 -80 -5 -108 -36
-16 -18 -29 -44 -29 -58 0 -38 51 -80 118 -99 284 -79 374 -164 342 -321 -11
-52 -11 -52 -58 -61 -29 -6 -46 -14 -44 -21 2 -10 -3 -10 -17 -2 -25 13 -34
13 -26 0 4 -6 -5 -10 -19 -10 -14 0 -26 -5 -26 -11 0 -5 4 -8 8 -5 4 2 14 1
22 -5 16 -9 -22 -14 -90 -10 -19 1 -46 -2 -60 -8 -23 -9 -22 -10 15 -11 22 -1
53 -1 69 0 17 1 26 -2 22 -8 -6 -10 -278 -8 -356 3 l-35 4 30 -14 c17 -8 25
-14 18 -15 -7 0 -39 14 -72 30 l-60 31 34 45 c19 25 38 51 43 59 6 12 22 8 88
-26 62 -31 96 -42 146 -46 113 -9 188 33 188 107 0 55 -35 80 -176 125 -174
55 -236 96 -271 175 -19 44 -18 127 3 180 23 56 94 116 168 140 81 27 234 22
316 -9z m950 -8 c167 -78 250 -211 252 -403 1 -99 -8 -141 -48 -222 -41 -82
-129 -164 -194 -182 -18 -5 -21 -5 -10 3 10 7 -2 9 -40 6 -108 -7 -108 -7 -70
-15 l35 -7 -44 -2 c-34 -1 -41 -4 -33 -14 8 -9 -1 -13 -44 -15 -45 -3 -53 -1
-48 12 4 11 0 16 -11 16 -9 0 -13 -4 -10 -10 10 -16 -36 -11 -93 10 -213 81
-324 268 -292 491 18 126 89 237 195 305 84 53 134 64 270 61 109 -3 126 -6
185 -34z m2805 23 c57 -15 131 -47 159 -69 20 -15 16 -23 -61 -126 -2 -2 -29
9 -60 25 -44 22 -75 30 -128 32 -94 5 -140 -14 -161 -64 -30 -72 0 -96 197
-157 197 -62 254 -118 253 -252 0 -109 -45 -177 -143 -221 -141 -63 -322 -52
-473 28 -32 17 -58 34 -58 39 0 12 81 119 90 119 4 0 18 -9 32 -19 63 -50 203
-81 275 -62 57 15 82 39 93 86 9 38 8 42 -24 71 -32 31 -56 40 -202 83 -82 24
-154 69 -198 124 -26 32 -31 48 -34 107 -5 84 19 144 78 190 90 71 243 99 365
66z m4834 4 c59 -10 131 -40 175 -73 19 -14 19 -14 -1 -34 -11 -11 -29 -34
-39 -52 -10 -17 -21 -31 -25 -31 -3 0 -26 9 -51 20 -99 43 -230 42 -275 -3
-12 -12 -25 -36 -29 -54 -10 -52 30 -83 155 -122 127 -40 208 -75 239 -104 36
-33 62 -95 62 -146 0 -56 -17 -121 -32 -121 -5 0 -8 6 -5 13 3 8 -3 14 -14 14
-11 1 -19 -5 -19 -13 0 -8 5 -14 11 -14 5 0 7 -4 4 -10 -8 -13 -52 -13 -57 1
-2 7 -11 7 -28 0 -24 -9 -24 -10 -2 -10 12 -1 22 -5 22 -11 0 -10 -17 -13 -55
-11 -11 1 -51 -5 -89 -13 -38 -8 -73 -13 -78 -10 -4 3 -16 0 -25 -5 -14 -8 -2
-11 47 -11 93 -1 56 -19 -40 -20 -51 -1 -68 -4 -54 -10 11 -4 37 -8 58 -8 20
0 40 -3 43 -6 8 -8 -121 -8 -141 0 -9 3 -13 11 -9 17 4 6 -3 8 -21 3 -18 -4
-25 -3 -21 4 3 5 -2 9 -12 8 -34 -3 -53 2 -53 13 0 7 15 9 43 4 30 -4 38 -3
27 4 -10 7 -11 11 -2 11 6 0 12 5 12 10 0 6 -7 10 -15 10 -8 0 -15 -6 -15 -14
0 -8 -8 -13 -17 -11 -74 15 -82 14 -76 -2 4 -10 2 -14 -4 -10 -6 4 -22 11 -37
17 l-27 10 23 30 c13 17 34 44 48 61 l25 30 35 -26 c19 -14 63 -35 98 -45 160
-50 281 1 270 112 -4 41 -41 63 -173 103 -156 47 -247 107 -274 178 -6 16 -11
52 -11 81 0 182 182 286 429 246z m-6619 -34 c0 -18 -3 -55 -7 -81 l-6 -47
-189 3 -189 4 -2 -112 -3 -113 179 0 178 0 -3 -72 -3 -72 -116 3 c-63 1 -143
-1 -177 -5 l-62 -7 0 -163 0 -162 -81 -4 c-49 -2 -83 1 -85 7 -1 6 -4 200 -6
433 l-4 422 288 0 288 0 0 -34z m797 31 c5 -3 6 -38 3 -79 l-5 -73 -117 0
c-64 0 -118 -2 -121 -5 -3 -3 -7 -159 -10 -348 -3 -189 -7 -345 -9 -347 -2 -2
-39 -5 -83 -6 l-80 -2 -3 351 -2 352 -125 0 c-123 0 -125 0 -126 23 0 12 -2
44 -4 71 -3 27 -2 52 0 56 5 8 670 14 682 7z m2009 -14 c-3 -8 -6 -44 -6 -79
l0 -64 -124 0 -125 0 -3 -132 c-2 -73 -3 -231 -3 -350 l0 -217 -88 -3 -87 -3
0 60 c0 33 0 192 0 353 l1 292 -125 0 -124 0 -4 76 c-2 42 -2 77 -1 78 2 1
158 3 349 3 303 1 345 -1 340 -14z m613 7 c67 -11 150 -48 189 -84 46 -41 65
-102 60 -190 -4 -66 -9 -89 -31 -123 -29 -45 -74 -83 -124 -103 -18 -7 -33
-14 -33 -16 0 -3 22 -35 48 -72 27 -37 79 -111 115 -164 l67 -98 -103 0 -103
0 -69 114 c-39 62 -82 135 -98 160 l-27 47 -68 -3 -67 -3 -1 -152 c0 -84 -2
-154 -5 -156 -2 -2 -41 -7 -86 -10 l-83 -6 -1 332 c-1 183 -2 352 -1 377 0 25
1 68 1 97 l1 52 58 4 c128 8 301 6 361 -3z m685 -85 c-1 -49 -2 -238 -3 -418
-2 -248 -5 -327 -14 -326 -7 1 -28 0 -47 -1 -31 -3 -30 -4 15 -10 48 -7 48 -7
-27 -10 -43 -2 -83 -3 -88 -4 -12 -1 -26 836 -15 854 4 7 40 10 93 8 l87 -3
-1 -90z m710 80 c158 -30 249 -96 310 -224 30 -63 31 -72 31 -191 0 -120 -1
-128 -32 -193 -48 -101 -158 -196 -218 -189 -17 2 -17 1 -5 -7 8 -6 10 -11 4
-11 -6 0 -22 8 -35 19 -16 12 -30 16 -44 10 -17 -6 -16 -8 9 -8 36 -1 27 -13
-11 -17 -16 -1 -66 -6 -113 -10 l-85 -9 75 -6 c48 -3 1 -6 -127 -7 l-203 -2
-1 393 c-1 382 -1 459 0 465 3 10 382 0 445 -13z m1137 11 c2 -2 3 -36 1 -75
l-4 -71 -199 0 -199 0 0 -105 0 -105 186 0 187 0 -7 -31 c-3 -17 -6 -49 -6
-70 l0 -39 -180 -2 -181 -3 -2 -107 -2 -108 212 0 c224 0 220 1 207 -45 -4
-17 -12 -20 -57 -17 -62 5 -55 -14 8 -21 l40 -4 -45 -3 -45 -3 50 -7 50 -7
-65 -1 c-36 -1 -121 -3 -190 -5 -69 -2 -115 -2 -102 1 12 2 22 7 22 12 0 11
-74 0 -78 -12 -2 -4 -29 -9 -60 -10 -40 -1 -27 -4 43 -8 l100 -6 -117 -2 c-64
-1 -123 -5 -132 -8 -14 -6 -16 36 -16 430 l0 436 288 0 c159 0 291 -2 293 -4z
m-7884 -772 c-3 -3 -12 -4 -19 -1 -8 3 -5 6 6 6 11 1 17 -2 13 -5z m8591 -15
c-2 -6 -7 -10 -11 -10 -4 1 -16 1 -27 1 -33 0 -23 17 11 18 16 0 29 -4 27 -9z
m-8645 -16 c-7 -2 -19 -2 -25 0 -7 3 -2 5 12 5 14 0 19 -2 13 -5z m-229 -25
c-5 -7 -1 -9 13 -6 11 3 38 2 59 -2 35 -7 31 -8 -28 -9 -48 -1 -68 3 -68 12 0
9 -2 9 -8 1 -5 -9 -11 -8 -20 2 -11 12 -7 14 23 14 25 0 34 -4 29 -12z m8531
-8 c3 -5 1 -10 -4 -10 -6 0 -11 5 -11 10 0 6 2 10 4 10 3 0 8 -4 11 -10z
m-8638 -6 c-3 -3 -12 -4 -19 -1 -8 3 -5 6 6 6 11 1 17 -2 13 -5z m43 -4 c-8
-5 -19 -10 -25 -10 -5 0 -3 5 5 10 8 5 20 10 25 10 6 0 3 -5 -5 -10z m7963 -7
c-7 -2 -19 -2 -25 0 -7 3 -2 5 12 5 14 0 19 -2 13 -5z m185 0 c-32 -2 -84 -2
-115 0 -32 2 -6 3 57 3 63 0 89 -1 58 -3z m499 1 c-3 -3 -12 -4 -19 -1 -8 3
-5 6 6 6 11 1 17 -2 13 -5z m-8502 -15 c28 -11 -36 -11 -90 0 -40 8 -39 9 15
8 30 0 64 -3 75 -8z m8640 1 c16 -7 13 -9 -15 -8 -19 0 -48 4 -65 8 -27 7 -26
8 15 8 25 0 54 -3 65 -8z"/>
<path d="M5630 7496 c0 -2 7 -7 16 -10 8 -3 12 -2 9 4 -6 10 -25 14 -25 6z"/>
<path d="M5588 7463 c7 -3 16 -2 19 1 4 3 -2 6 -13 5 -11 0 -14 -3 -6 -6z"/>
<path d="M5663 7453 c9 -2 25 -2 35 0 9 3 1 5 -18 5 -19 0 -27 -2 -17 -5z"/>
<path d="M5638 7383 c7 -3 16 -2 19 1 4 3 -2 6 -13 5 -11 0 -14 -3 -6 -6z"/>
<path d="M5653 7323 c9 -2 25 -2 35 0 9 3 1 5 -18 5 -19 0 -27 -2 -17 -5z"/>
<path d="M5515 7290 c32 -4 68 -4 80 0 12 4 -12 8 -60 7 l-80 0 60 -7z"/>
<path d="M5708 7293 c6 -2 18 -2 25 0 6 3 1 5 -13 5 -14 0 -19 -2 -12 -5z"/>
<path d="M5633 7283 c9 -2 23 -2 30 0 6 3 -1 5 -18 5 -16 0 -22 -2 -12 -5z"/>
<path d="M5660 7258 c0 -10 49 -9 75 2 15 6 7 9 -27 8 -27 -1 -48 -5 -48 -10z"/>
<path d="M5508 7233 c6 -2 18 -2 25 0 6 3 1 5 -13 5 -14 0 -19 -2 -12 -5z"/>
<path d="M5663 7223 c9 -2 25 -2 35 0 9 3 1 5 -18 5 -19 0 -27 -2 -17 -5z"/>
<path d="M5658 7193 c7 -3 16 -2 19 1 4 3 -2 6 -13 5 -11 0 -14 -3 -6 -6z"/>
<path d="M5448 7063 c6 -2 18 -2 25 0 6 3 1 5 -13 5 -14 0 -19 -2 -12 -5z"/>
<path d="M5480 7030 c8 -5 22 -9 30 -9 10 0 8 3 -5 9 -27 12 -43 12 -25 0z"/>
<path d="M5558 7013 c6 -2 18 -2 25 0 6 3 1 5 -13 5 -14 0 -19 -2 -12 -5z"/>
<path d="M5458 7003 c6 -2 18 -2 25 0 6 3 1 5 -13 5 -14 0 -19 -2 -12 -5z"/>
<path d="M5458 6973 c7 -3 16 -2 19 1 4 3 -2 6 -13 5 -11 0 -14 -3 -6 -6z"/>
<path d="M5375 6910 l-30 -8 30 0 c17 0 44 4 60 8 l30 8 -30 0 c-16 0 -43 -4
-60 -8z"/>
<path d="M5508 6903 c7 -3 16 -2 19 1 4 3 -2 6 -13 5 -11 0 -14 -3 -6 -6z"/>
<path d="M5478 6833 c7 -3 16 -2 19 1 4 3 -2 6 -13 5 -11 0 -14 -3 -6 -6z"/>
<path d="M5450 6820 c0 -5 5 -10 11 -10 5 0 7 5 4 10 -3 6 -8 10 -11 10 -2 0
-4 -4 -4 -10z"/>
<path d="M5345 6810 c39 -4 76 -4 84 0 8 4 -23 8 -70 8 l-84 -1 70 -7z"/>
<path d="M5417 6773 c-4 -3 -7 -11 -7 -17 0 -6 5 -5 12 2 6 6 9 14 7 17 -3 3
-9 2 -12 -2z"/>
<path d="M5375 6710 c-3 -5 3 -10 15 -10 12 0 18 5 15 10 -3 6 -10 10 -15 10
-5 0 -12 -4 -15 -10z"/>
<path d="M5303 6583 c9 -2 23 -2 30 0 6 3 -1 5 -18 5 -16 0 -22 -2 -12 -5z"/>
<path d="M6288 6343 c7 -3 16 -2 19 1 4 3 -2 6 -13 5 -11 0 -14 -3 -6 -6z"/>
<path d="M6370 6216 c0 -2 16 -6 35 -8 19 -2 35 0 35 4 0 4 -16 8 -35 8 -19 0
-35 -2 -35 -4z"/>
<path d="M6328 6183 c6 -2 18 -2 25 0 6 3 1 5 -13 5 -14 0 -19 -2 -12 -5z"/>
<path d="M6418 6183 c7 -3 16 -2 19 1 4 3 -2 6 -13 5 -11 0 -14 -3 -6 -6z"/>
<path d="M6428 6093 c12 -2 30 -2 40 0 9 3 -1 5 -23 4 -22 0 -30 -2 -17 -4z"/>
<path d="M6508 6063 c7 -3 16 -2 19 1 4 3 -2 6 -13 5 -11 0 -14 -3 -6 -6z"/>
<path d="M6348 6033 c6 -2 18 -2 25 0 6 3 1 5 -13 5 -14 0 -19 -2 -12 -5z"/>
<path d="M6413 6033 c9 -2 23 -2 30 0 6 3 -1 5 -18 5 -16 0 -22 -2 -12 -5z"/>
<path d="M6478 6033 c7 -3 16 -2 19 1 4 3 -2 6 -13 5 -11 0 -14 -3 -6 -6z"/>
<path d="M5688 6013 c7 -3 16 -2 19 1 4 3 -2 6 -13 5 -11 0 -14 -3 -6 -6z"/>
<path d="M5738 6013 c6 -2 18 -2 25 0 6 3 1 5 -13 5 -14 0 -19 -2 -12 -5z"/>
<path d="M5793 6013 c9 -2 23 -2 30 0 6 3 -1 5 -18 5 -16 0 -22 -2 -12 -5z"/>
<path d="M6488 6013 c6 -2 18 -2 25 0 6 3 1 5 -13 5 -14 0 -19 -2 -12 -5z"/>
<path d="M6540 6012 c0 -5 -10 -14 -22 -19 -21 -9 -18 -11 20 -14 31 -3 39 -2
29 6 -7 5 -12 16 -10 23 3 6 0 12 -6 12 -6 0 -11 -4 -11 -8z"/>
<path d="M5745 5960 c-3 -5 1 -10 9 -10 9 0 16 5 16 10 0 6 -4 10 -9 10 -6 0
-13 -4 -16 -10z"/>
<path d="M5625 5950 c-3 -5 -1 -10 4 -10 6 0 11 5 11 10 0 6 -2 10 -4 10 -3 0
-8 -4 -11 -10z"/>
<path d="M6413 5950 c-31 -13 -29 -22 2 -10 14 5 32 7 42 3 11 -4 14 -3 9 5
-8 14 -22 14 -53 2z"/>
<path d="M6503 5953 c25 -4 27 -7 15 -21 -11 -14 -11 -15 5 -9 10 4 35 7 55 7
l37 1 -25 14 c-14 8 -45 14 -70 13 -30 -1 -36 -2 -17 -5z"/>
<path d="M6558 5913 c12 -2 32 -2 45 0 12 2 2 4 -23 4 -25 0 -35 -2 -22 -4z"/>
<path d="M6535 5890 c17 -3 29 -11 28 -18 -2 -8 14 -12 49 -12 50 0 51 0 33
19 -14 16 -30 20 -79 19 -44 -1 -53 -3 -31 -8z"/>
<path d="M5595 5880 c-16 -7 -17 -9 -3 -9 9 -1 20 4 23 9 7 11 7 11 -20 0z"/>
<path d="M5660 5880 c0 -5 7 -10 15 -10 8 0 15 5 15 10 0 6 -7 10 -15 10 -8 0
-15 -4 -15 -10z"/>
<path d="M6335 5860 l-50 -7 53 -1 c29 -1 52 2 52 8 0 6 -1 9 -2 8 -2 0 -25
-4 -53 -8z"/>
<path d="M6518 5863 c6 -2 18 -2 25 0 6 3 1 5 -13 5 -14 0 -19 -2 -12 -5z"/>
<path d="M6435 5850 c3 -5 14 -10 23 -10 15 0 15 2 2 10 -20 13 -33 13 -25 0z"/>
<path d="M6573 5833 c20 -2 54 -2 75 0 20 2 3 4 -38 4 -41 0 -58 -2 -37 -4z"/>
<path d="M5555 5820 c-3 -5 3 -10 14 -10 12 0 21 5 21 10 0 6 -6 10 -14 10 -8
0 -18 -4 -21 -10z"/>
<path d="M6478 5813 c6 -2 18 -2 25 0 6 3 1 5 -13 5 -14 0 -19 -2 -12 -5z"/>
<path d="M6588 5813 c6 -2 18 -2 25 0 6 3 1 5 -13 5 -14 0 -19 -2 -12 -5z"/>
<path d="M6630 5810 c0 -5 9 -10 19 -10 11 0 23 5 26 10 4 6 -5 10 -19 10 -14
0 -26 -4 -26 -10z"/>
<path d="M6368 5803 c12 -2 22 -9 22 -14 0 -5 5 -9 11 -9 5 0 8 4 5 9 -4 5 0
12 6 14 7 3 -5 5 -27 5 -22 0 -30 -3 -17 -5z"/>
<path d="M6504 5789 c-24 -6 -20 -7 21 -10 105 -6 161 -6 175 2 18 9 -156 17
-196 8z"/>
<path d="M5795 5780 c-3 -5 -1 -10 4 -10 6 0 11 5 11 10 0 6 -2 10 -4 10 -3 0
-8 -4 -11 -10z"/>
<path d="M5848 5783 c7 -3 16 -2 19 1 4 3 -2 6 -13 5 -11 0 -14 -3 -6 -6z"/>
<path d="M6458 5763 c7 -3 16 -2 19 1 4 3 -2 6 -13 5 -11 0 -14 -3 -6 -6z"/>
<path d="M6402 5734 c2 -12 -3 -19 -12 -19 -8 0 -14 6 -12 13 1 7 -8 12 -24
12 -23 0 -24 -1 -10 -16 9 -8 31 -18 49 -21 30 -5 34 -3 32 18 -1 13 -7 25
-14 27 -7 2 -11 -3 -9 -14z"/>
<path d="M6458 5733 c7 -3 16 -2 19 1 4 3 -2 6 -13 5 -11 0 -14 -3 -6 -6z"/>
<path d="M5828 5723 c6 -2 18 -2 25 0 6 3 1 5 -13 5 -14 0 -19 -2 -12 -5z"/>
<path d="M5618 5713 c7 -3 16 -2 19 1 4 3 -2 6 -13 5 -11 0 -14 -3 -6 -6z"/>
<path d="M5660 5710 c0 -6 27 -10 62 -10 74 0 73 5 -4 14 -37 4 -58 2 -58 -4z"/>
<path d="M6448 5713 c6 -2 18 -2 25 0 6 3 1 5 -13 5 -14 0 -19 -2 -12 -5z"/>
<path d="M5488 5693 c6 -2 18 -2 25 0 6 3 1 5 -13 5 -14 0 -19 -2 -12 -5z"/>
<path d="M5568 5693 c6 -2 18 -2 25 0 6 3 1 5 -13 5 -14 0 -19 -2 -12 -5z"/>
<path d="M6208 5683 c6 -2 18 -2 25 0 6 3 1 5 -13 5 -14 0 -19 -2 -12 -5z"/>
<path d="M6348 5683 c17 -2 47 -2 65 0 17 2 3 4 -33 4 -36 0 -50 -2 -32 -4z"/>
<path d="M4468 6203 c7 -3 16 -2 19 1 4 3 -2 6 -13 5 -11 0 -14 -3 -6 -6z"/>
<path d="M4538 6163 c12 -2 30 -2 40 0 9 3 -1 5 -23 4 -22 0 -30 -2 -17 -4z"/>
<path d="M4473 6133 c9 -2 25 -2 35 0 9 3 1 5 -18 5 -19 0 -27 -2 -17 -5z"/>
<path d="M4628 6123 c7 -3 16 -2 19 1 4 3 -2 6 -13 5 -11 0 -14 -3 -6 -6z"/>
<path d="M3878 6103 c7 -3 16 -2 19 1 4 3 -2 6 -13 5 -11 0 -14 -3 -6 -6z"/>
<path d="M4608 6093 c12 -2 30 -2 40 0 9 3 -1 5 -23 4 -22 0 -30 -2 -17 -4z"/>
<path d="M3865 6010 c3 -5 8 -10 11 -10 2 0 4 5 4 10 0 6 -5 10 -11 10 -5 0
-7 -4 -4 -10z"/>
<path d="M3903 6013 c9 -2 23 -2 30 0 6 3 -1 5 -18 5 -16 0 -22 -2 -12 -5z"/>
<path d="M3990 6006 c0 -2 14 -6 30 -8 17 -3 30 -1 30 4 0 4 -13 8 -30 8 -16
0 -30 -2 -30 -4z"/>
<path d="M4663 5943 c9 -2 23 -2 30 0 6 3 -1 5 -18 5 -16 0 -22 -2 -12 -5z"/>
<path d="M4685 5910 c3 -5 13 -10 21 -10 8 0 12 5 9 10 -3 6 -13 10 -21 10 -8
0 -12 -4 -9 -10z"/>
<path d="M3898 5903 c12 -2 30 -2 40 0 9 3 -1 5 -23 4 -22 0 -30 -2 -17 -4z"/>
<path d="M4560 5900 c-13 -9 -13 -10 0 -10 8 0 22 5 30 10 13 9 13 10 0 10 -8
0 -22 -5 -30 -10z"/>
<path d="M4625 5900 c3 -5 13 -10 21 -10 8 0 12 5 9 10 -3 6 -13 10 -21 10 -8
0 -12 -4 -9 -10z"/>
<path d="M3756 5882 c-3 -5 8 -6 25 -4 16 2 29 6 29 8 0 8 -49 4 -54 -4z"/>
<path d="M4678 5873 c7 -3 16 -2 19 1 4 3 -2 6 -13 5 -11 0 -14 -3 -6 -6z"/>
<path d="M4725 5870 c-4 -6 9 -10 31 -10 42 0 42 4 2 14 -15 3 -30 2 -33 -4z"/>
<path d="M3738 5843 c6 -2 18 -2 25 0 6 3 1 5 -13 5 -14 0 -19 -2 -12 -5z"/>
<path d="M3858 5843 c7 -3 16 -2 19 1 4 3 -2 6 -13 5 -11 0 -14 -3 -6 -6z"/>
<path d="M4458 5843 c7 -3 16 -2 19 1 4 3 -2 6 -13 5 -11 0 -14 -3 -6 -6z"/>
<path d="M4500 5840 c0 -6 7 -10 15 -10 8 0 15 2 15 4 0 2 -7 6 -15 10 -8 3
-15 1 -15 -4z"/>
<path d="M4786 5835 c-10 -11 -36 -15 -88 -15 -40 0 -80 -5 -88 -10 -11 -7 1
-9 40 -9 63 1 185 15 155 18 -20 2 -20 2 -1 16 11 8 15 15 9 15 -7 0 -18 -7
-27 -15z"/>
<path d="M4693 5833 c15 -2 39 -2 55 0 15 2 2 4 -28 4 -30 0 -43 -2 -27 -4z"/>
<path d="M3732 5821 c-19 -11 78 -22 98 -10 11 6 4 8 -22 9 -20 0 -42 2 -50 5
-7 3 -19 1 -26 -4z"/>
<path d="M4418 5813 c6 -2 18 -2 25 0 6 3 1 5 -13 5 -14 0 -19 -2 -12 -5z"/>
<path d="M4483 5803 c9 -2 25 -2 35 0 9 3 1 5 -18 5 -19 0 -27 -2 -17 -5z"/>
<path d="M4565 5779 c18 -5 33 -5 39 1 7 7 -4 10 -29 9 -40 -1 -40 -1 -10 -10z"/>
<path d="M4675 5781 l-60 -6 75 -7 c41 -4 100 -10 130 -14 37 -4 50 -2 41 4
-7 5 -10 15 -7 21 8 12 -67 13 -179 2z m141 -9 c-5 -8 -66 -4 -66 4 0 2 16 4
36 4 19 0 33 -4 30 -8z"/>
<path d="M3708 5763 c7 -3 16 -2 19 1 4 3 -2 6 -13 5 -11 0 -14 -3 -6 -6z"/>
<path d="M4615 5736 c14 -9 56 -13 145 -13 91 0 117 2 95 9 -16 5 -72 7 -122
3 -60 -3 -93 -2 -93 5 0 5 -10 10 -22 10 -22 0 -22 0 -3 -14z"/>
<path d="M3645 5720 c3 -5 13 -10 21 -10 8 0 14 5 14 10 0 6 -9 10 -21 10 -11
0 -17 -4 -14 -10z"/>
<path d="M3883 5723 c9 -2 23 -2 30 0 6 3 -1 5 -18 5 -16 0 -22 -2 -12 -5z"/>
<path d="M4018 5723 c6 -2 18 -2 25 0 6 3 1 5 -13 5 -14 0 -19 -2 -12 -5z"/>
<path d="M3748 5713 c12 -2 30 -2 40 0 9 3 -1 5 -23 4 -22 0 -30 -2 -17 -4z"/>
<path d="M3914 5696 c-10 -10 -3 -13 32 -14 24 0 46 4 50 9 3 5 -6 9 -20 9
-13 0 -30 2 -38 5 -7 2 -18 -2 -24 -9z"/>
<path d="M4555 5700 c3 -5 22 -10 41 -10 19 0 34 5 34 10 0 6 -18 10 -41 10
-24 0 -38 -4 -34 -10z"/>
<path d="M4826 5701 c-7 -10 74 -22 88 -13 6 3 0 9 -14 13 -36 10 -68 10 -74
0z"/>
<path d="M4035 5690 c-3 -5 1 -10 9 -10 8 0 18 5 21 10 3 6 -1 10 -9 10 -8 0
-18 -4 -21 -10z"/>
<path d="M3858 5683 c7 -3 16 -2 19 1 4 3 -2 6 -13 5 -11 0 -14 -3 -6 -6z"/>
<path d="M4518 5683 c7 -3 16 -2 19 1 4 3 -2 6 -13 5 -11 0 -14 -3 -6 -6z"/>
<path d="M4570 5663 c0 -12 104 -14 131 -4 18 7 6 10 -53 10 -43 1 -78 -2 -78
-6z"/>
<path d="M4860 5660 c0 -6 17 -10 37 -10 43 0 41 5 -4 13 -19 4 -33 2 -33 -3z"/>
<path d="M3618 5653 c7 -3 16 -2 19 1 4 3 -2 6 -13 5 -11 0 -14 -3 -6 -6z"/>
<path d="M3808 5653 c6 -2 18 -2 25 0 6 3 1 5 -13 5 -14 0 -19 -2 -12 -5z"/>
<path d="M818 4343 c6 -2 18 -2 25 0 6 3 1 5 -13 5 -14 0 -19 -2 -12 -5z"/>
<path d="M688 4223 c7 -3 16 -2 19 1 4 3 -2 6 -13 5 -11 0 -14 -3 -6 -6z"/>
<path d="M355 4210 c-18 -8 -17 -9 8 -9 15 -1 27 4 27 9 0 12 -8 12 -35 0z"/>
<path d="M1429 4834 c-65 -23 -134 -94 -159 -167 -100 -284 206 -532 420 -340
71 63 93 118 94 228 0 99 -17 152 -69 213 -60 71 -187 100 -286 66z"/>
<path d="M1628 4183 c7 -3 16 -2 19 1 4 3 -2 6 -13 5 -11 0 -14 -3 -6 -6z"/>
<path d="M4528 4153 c7 -3 16 -2 19 1 4 3 -2 6 -13 5 -11 0 -14 -3 -6 -6z"/>
<path d="M4453 4133 c9 -2 23 -2 30 0 6 3 -1 5 -18 5 -16 0 -22 -2 -12 -5z"/>
<path d="M9442 4394 c-11 -12 -17 -12 -28 -3 -8 6 -14 7 -14 2 0 -5 12 -15 26
-21 20 -10 30 -9 47 3 17 12 18 15 5 15 -9 0 -18 4 -20 9 -1 5 -9 2 -16 -5z"/>
<path d="M9510 4360 c0 -5 9 -10 20 -10 11 0 20 5 20 10 0 6 -9 10 -20 10 -11
0 -20 -4 -20 -10z"/>
<path d="M9535 4320 c3 -5 8 -10 11 -10 2 0 4 5 4 10 0 6 -5 10 -11 10 -5 0
-7 -4 -4 -10z"/>
<path d="M8985 4230 c-3 -5 -2 -10 4 -10 5 0 13 5 16 10 3 6 2 10 -4 10 -5 0
-13 -4 -16 -10z"/>
<path d="M5920 4704 l0 -137 100 6 c118 6 166 25 193 77 22 43 18 112 -9 142
-33 36 -77 48 -184 48 l-100 0 0 -136z"/>
<path d="M6798 4273 c7 -3 16 -2 19 1 4 3 -2 6 -13 5 -11 0 -14 -3 -6 -6z"/>
<path d="M7289 4584 c-1 -143 -3 -271 -5 -286 l-3 -28 84 0 c89 0 174 14 215
35 37 20 89 74 113 119 17 33 22 58 22 126 0 105 -21 165 -75 214 -62 56 -101
68 -232 74 l-118 4 -1 -258z"/>
<path d="M7257 4143 c18 -2 50 -2 70 0 21 2 7 4 -32 4 -38 0 -55 -2 -38 -4z"/>
<path d="M8433 4173 c9 -2 25 -2 35 0 9 3 1 5 -18 5 -19 0 -27 -2 -17 -5z"/>
<path d="M8503 4173 c9 -2 25 -2 35 0 9 3 1 5 -18 5 -19 0 -27 -2 -17 -5z"/>
</g>
</svg>
